<svg width="61" height="60" viewBox="0 0 61 60" fill="none" xmlns="http://www.w3.org/2000/svg">
<mask id="mask0_113_3307" style="mask-type:luminance" maskUnits="userSpaceOnUse" x="0" y="0" width="61" height="60">
<path d="M60.4172 12.0516L12.562 0.0904541L0.600895 47.9456L48.4561 59.9068L60.4172 12.0516Z" fill="white"/>
</mask>
<g mask="url(#mask0_113_3307)">
<path d="M26.2914 16.7087L26.2916 16.7084L29.1528 13.3694L29.153 13.3692C29.3427 13.1476 29.6722 12.9348 30.0775 12.8056C30.4828 12.6765 30.875 12.6592 31.1586 12.7301L38.0602 14.4551C38.3438 14.526 38.6818 14.7258 38.9786 15.0304C39.2755 15.3351 39.4661 15.6779 39.5293 15.9627L39.5293 15.963L40.4831 20.2554L40.4832 20.2558C40.633 20.9287 41.022 21.5505 41.4896 22.0305C41.9572 22.5105 42.5686 22.9155 43.2374 23.0827L52.7276 25.4547C53.6875 25.6946 54.2718 26.6689 54.0322 27.6276L48.6409 49.1976C48.2822 50.6328 46.8248 51.5073 45.3896 51.1486L7.42699 41.6601C5.99176 41.3013 5.11727 39.844 5.47599 38.4088L10.8673 16.8388C11.1069 15.8801 12.0809 15.2953 13.0407 15.5352L22.531 17.9073C23.1997 18.0744 23.9298 18.0046 24.5683 17.8011C25.2067 17.5976 25.8426 17.232 26.2914 16.7087ZM32.6485 21.4381C26.465 19.8926 20.191 23.6574 18.6455 29.8409C17.1 36.0244 20.8648 42.2983 27.0483 43.8438C33.2318 45.3893 39.5057 41.6245 41.0512 35.4411C42.5967 29.2576 38.8319 22.9837 32.6485 21.4381Z" fill="#C395F4" stroke="#0B0B0C" stroke-width="1.75162"/>
<path d="M31.9521 40.4985L36.5958 37.1046C35.5068 38.7707 33.8429 39.9717 31.9521 40.4985Z" fill="#C395F4" stroke="#0B0B0C" stroke-width="2.62743"/>
</g>
</svg>
