<svg width="46" height="44" viewBox="0 0 46 44" fill="none" xmlns="http://www.w3.org/2000/svg">
<path d="M16.7862 4.27548L16.9071 4.29852L16.9476 4.32743L17.1472 4.36193C17.6265 4.44482 18.0499 4.54436 18.4503 4.69657L18.4844 4.70952L18.5194 4.71964L19.375 4.96662C19.4873 5.01012 19.6309 5.0811 19.8029 5.17156C19.8324 5.18708 19.8647 5.20426 19.8987 5.22236C20.039 5.29701 20.209 5.38749 20.3383 5.44339L20.3382 5.44348L20.3503 5.44848C20.3987 5.46856 20.4444 5.48735 20.4877 5.50516C20.6905 5.5885 20.8417 5.65062 20.9725 5.72457L21.5636 6.05865L22.0404 5.57534C24.0877 3.50024 26.7346 2.16343 29.5971 1.78177L29.5971 1.78179L29.6033 1.78092C30.9101 1.59727 32.2267 1.60059 33.5005 1.83784L33.5005 1.83788L33.5088 1.83933C41.3806 3.22877 45.4024 11.14 44.1136 18.9419C43.3116 22.9812 41.6126 26.8023 39.1476 30.0751C35.5172 34.7346 31.4138 38.9949 26.8876 42.8048L26.8107 42.8674L26.6859 42.8124C21.27 40.4222 16.124 37.4614 11.306 33.966C8.05195 31.4949 5.36592 28.3106 3.46006 24.6513C0.0340611 17.5196 1.71258 8.80364 8.98312 5.23852L8.98317 5.23862L8.99564 5.23225C9.53257 4.95837 10.0944 4.73877 10.666 4.57739L10.8719 4.54846L10.9357 4.5395L10.9974 4.52143C11.5601 4.35687 12.1262 4.23718 12.7019 4.15626L12.9304 4.12415C14.2315 3.98275 15.5151 4.03339 16.7862 4.27548ZM33.6025 6.57764L33.5889 6.57455L33.5752 6.57188C32.1354 6.29259 30.7642 7.24683 30.4694 8.67623L30.4675 8.68547L30.4658 8.69475C30.2017 10.1287 31.1258 11.5328 32.5706 11.8326C33.6797 12.0818 34.5526 13.0311 34.7187 14.2129L34.7237 14.2481C34.7746 14.9678 35.0917 15.6353 35.617 16.1171L36.2166 15.4634L35.617 16.1171C36.1751 16.6289 36.9082 16.8422 37.6001 16.8114L37.6542 16.809L37.7077 16.8C39.0561 16.5735 40.0443 15.3369 39.9488 13.9455L39.9467 13.914L39.9423 13.8827L39.9068 13.6301C39.4924 10.1754 36.9643 7.34044 33.6025 6.57764Z" fill="#F49AC1" stroke="#0B0B0C" stroke-width="1.77404"/>
</svg>
