<svg width="25" height="25" viewBox="0 0 25 25" fill="none" xmlns="http://www.w3.org/2000/svg">
<g clip-path="url(#clip0_113_1550)">
<path d="M12.6655 15.4404C14.3224 15.4404 15.6655 14.0973 15.6655 12.4404C15.6655 10.7836 14.3224 9.44043 12.6655 9.44043C11.0087 9.44043 9.66553 10.7836 9.66553 12.4404C9.66553 14.0973 11.0087 15.4404 12.6655 15.4404Z" fill="#FFFAEC"/>
<path d="M16.7905 3.06543H8.54053C7.14862 3.06701 5.81418 3.62064 4.82996 4.60486C3.84573 5.58908 3.2921 6.92353 3.29053 8.31543V16.5654C3.2921 17.9573 3.84573 19.2918 4.82996 20.276C5.81418 21.2602 7.14862 21.8139 8.54053 21.8154H16.7905C18.1824 21.8139 19.5169 21.2602 20.5011 20.276C21.4853 19.2918 22.039 17.9573 22.0405 16.5654V8.31543C22.039 6.92353 21.4853 5.58908 20.5011 4.60486C19.5169 3.62064 18.1824 3.06701 16.7905 3.06543ZM12.6655 16.9404C11.7755 16.9404 10.9055 16.6765 10.1655 16.182C9.42544 15.6876 8.84866 14.9848 8.50807 14.1625C8.16748 13.3402 8.07836 12.4354 8.25199 11.5625C8.42563 10.6896 8.85421 9.88779 9.48355 9.25845C10.1129 8.62911 10.9147 8.20053 11.7876 8.0269C12.6605 7.85326 13.5653 7.94238 14.3876 8.28297C15.2099 8.62357 15.9127 9.20034 16.4071 9.94036C16.9016 10.6804 17.1655 11.5504 17.1655 12.4404C17.1642 13.6335 16.6896 14.7773 15.846 15.6209C15.0024 16.4645 13.8586 16.9391 12.6655 16.9404ZM17.5405 8.69043C17.318 8.69043 17.1005 8.62445 16.9155 8.50083C16.7305 8.37722 16.5863 8.20152 16.5012 7.99595C16.416 7.79038 16.3937 7.56418 16.4371 7.34595C16.4806 7.12772 16.5877 6.92727 16.745 6.76993C16.9024 6.6126 17.1028 6.50545 17.3211 6.46205C17.5393 6.41864 17.7655 6.44092 17.971 6.52607C18.1766 6.61121 18.3523 6.75541 18.4759 6.94041C18.5995 7.12542 18.6655 7.34293 18.6655 7.56543C18.6655 7.8638 18.547 8.14995 18.336 8.36092C18.125 8.5719 17.8389 8.69043 17.5405 8.69043Z" fill="#FFFAEC"/>
</g>
<defs>
<clipPath id="clip0_113_1550">
<rect width="24" height="24" fill="white" transform="translate(0.665527 0.44043)"/>
</clipPath>
</defs>
</svg>
