<svg width="81" height="80" viewBox="0 0 81 80" fill="none" xmlns="http://www.w3.org/2000/svg">
<g clip-path="url(#clip0_113_3296)">
<path d="M29.4137 11.4501L17.5581 18.3739C17.1328 18.6211 16.8051 19.0065 16.6295 19.466C16.454 19.9256 16.4412 20.4314 16.5934 20.8992L23.7783 42.8509C22.7419 42.8323 21.7096 42.988 20.7248 43.3117C16.2699 44.7699 13.7289 49.2233 15.0497 53.2586C16.3705 57.2939 21.0529 59.3831 25.508 57.9249C28.5696 56.9228 31.0871 54.2563 31.4312 51.0023C31.7304 48.1744 30.3237 45.3529 29.4581 42.7082L23.7144 25.1599L39.9452 15.3305C38.4643 11.0101 33.3769 9.13574 29.4139 11.4502L29.4137 11.4501Z" fill="#9DDCF9"/>
<path d="M36.028 31.6802L43.7203 55.1823C43.7384 55.2384 43.7431 55.298 43.7342 55.3563C43.7252 55.4146 43.7028 55.47 43.6687 55.5181C43.6347 55.5663 43.5899 55.6058 43.5379 55.6337C43.4859 55.6615 43.4281 55.6769 43.3691 55.6786C42.5049 55.7114 41.6495 55.8649 40.8278 56.1347C36.3727 57.5929 33.8319 62.0463 35.1526 66.0816C36.4734 70.1169 41.1557 72.2062 45.6108 70.748C48.6724 69.7459 51.1901 67.0794 51.5342 63.8254C51.8332 60.9975 50.4266 58.1759 49.561 55.5313L43.3045 36.4161C43.2604 36.2806 43.2635 36.1341 43.3133 36.0006C43.3631 35.867 43.4566 35.7543 43.5786 35.6807L59.3798 26.1115C59.4611 26.062 59.5525 26.0314 59.6472 26.0222C59.742 26.0129 59.8376 26.0251 59.927 26.0579C60.0163 26.0907 60.0972 26.1433 60.1634 26.2117C60.2296 26.2801 60.2795 26.3625 60.3095 26.4529L66.6096 45.7012C66.6276 45.7574 66.6324 45.817 66.6234 45.8753C66.6145 45.9336 66.5921 45.989 66.558 46.0372C66.524 46.0854 66.4791 46.1249 66.4271 46.1528C66.3751 46.1806 66.3174 46.196 66.2584 46.1977C65.3941 46.2304 64.5387 46.384 63.717 46.6537C59.2619 48.1119 56.7211 52.5653 58.0419 56.6006C59.3627 60.636 64.0449 62.7252 68.4999 61.267C71.1959 60.3846 73.4198 58.1115 74.1844 55.3332C74.9253 52.641 73.8782 50.4105 73.0591 47.9108C71.5984 43.4524 70.139 38.9937 68.681 34.5346L62.8467 16.7095C62.7578 16.4408 62.6099 16.1953 62.4138 15.9912C62.2177 15.7871 61.9785 15.6294 61.7136 15.5297C61.4486 15.43 61.1648 15.3908 60.8828 15.415C60.6008 15.4393 60.3277 15.5263 60.0837 15.6697L36.9927 29.155C36.5674 29.4021 36.2397 29.7876 36.0641 30.2471C35.8886 30.7066 35.8758 31.2124 36.028 31.6802Z" fill="#9DDCF9"/>
<path d="M56.7781 27.6088C56.7481 27.5185 56.6982 27.436 56.632 27.3676C56.5658 27.2992 56.485 27.2467 56.3956 27.2138C56.3062 27.181 56.2106 27.1688 56.1159 27.1781C56.0211 27.1874 55.9297 27.2179 55.8484 27.2675L40.0473 36.8366C39.9252 36.9102 39.8317 37.023 39.7819 37.1565C39.7321 37.29 39.7291 37.4365 39.7731 37.572L46.0297 56.6872C46.8952 59.3318 48.3018 62.1534 48.0028 64.9814C47.7247 67.6108 46.027 69.8561 43.7703 71.15C44.3958 71.0783 45.0125 70.9436 45.611 70.748C48.6726 69.7459 51.1903 67.0794 51.5344 63.8254C51.8334 60.9975 50.4268 58.1759 49.5612 55.5313L43.3047 36.4161C43.2606 36.2806 43.2637 36.1341 43.3135 36.0006C43.3633 35.8671 43.4568 35.7543 43.5788 35.6807L56.7995 27.6743L56.7781 27.6088ZM40.1952 56.3696C39.826 56.5201 39.4668 56.6941 39.1199 56.8906C39.3601 56.8628 39.5997 56.8433 39.8377 56.8345C39.8938 56.8328 39.9488 56.8186 39.9988 56.7931C40.0487 56.7675 40.0924 56.7312 40.1266 56.6867C40.1608 56.6422 40.1847 56.5907 40.1965 56.5358C40.2084 56.481 40.2079 56.4242 40.1952 56.3695L40.1952 56.3696ZM73.0593 47.9108C71.5986 43.4525 70.1392 38.9937 68.6812 34.5346L62.8469 16.7095C62.758 16.4408 62.6101 16.1954 62.414 15.9912C62.2179 15.7871 61.9787 15.6294 61.7138 15.5297C61.4488 15.43 61.165 15.3908 60.883 15.4151C60.6009 15.4393 60.3279 15.5263 60.0839 15.6697L58.275 16.7262C58.5194 16.8312 58.7386 16.9872 58.918 17.1837C59.0974 17.3801 59.2328 17.6125 59.3153 17.8654L69.5277 49.0667C70.3467 51.5663 71.3939 53.7969 70.653 56.4891C70.0286 58.6713 68.586 60.5283 66.6259 61.6728C67.2629 61.6021 67.891 61.4661 68.5002 61.267C71.196 60.3847 73.42 58.1115 74.1846 55.3332C74.9255 52.641 73.8784 50.4105 73.0593 47.9108ZM63.0844 46.8886C62.7152 47.0391 62.356 47.2132 62.0091 47.4097C62.2493 47.3818 62.4889 47.3624 62.727 47.3536C62.7831 47.3519 62.8381 47.3377 62.8881 47.3122C62.938 47.2866 62.9817 47.2503 63.0159 47.2058C63.0501 47.1613 63.074 47.1098 63.0858 47.0549C63.0977 47.0001 63.0972 46.9433 63.0844 46.8886ZM31.4313 51.0025C31.7303 48.1744 30.3237 45.3529 29.4581 42.7083L23.7144 25.1598L39.9452 15.3305C38.4644 11.0101 33.3769 9.13578 29.4138 11.4503L29.1196 11.622C30.7002 11.5229 32.2696 11.945 33.5872 12.8237C34.9048 13.7024 35.8977 14.989 36.4137 16.4863L20.1828 26.316L25.9265 43.8645C26.7921 46.509 28.1987 49.3305 27.8996 52.1586C27.6215 54.7879 25.9239 57.0332 23.6672 58.3273C24.2927 58.2555 24.9094 58.1208 25.5079 57.9251C28.5695 56.923 31.0872 54.2565 31.4313 51.0025ZM20.0956 43.5451C19.7248 43.696 19.3642 43.8706 19.016 44.068C19.4243 44.0199 19.8355 43.9994 20.2467 44.0067L20.0956 43.5451Z" fill="#9DDCF9"/>
<path d="M25.7968 58.8079C20.862 60.4231 15.645 58.0633 14.167 53.5476C12.6889 49.0318 15.5011 44.044 20.4359 42.4288C21.1116 42.2072 21.8086 42.0565 22.5156 41.9793L15.7105 21.1882C15.4955 20.5184 15.5149 19.7953 15.7656 19.138C16.0163 18.4807 16.4833 17.9283 17.0897 17.5718L28.9454 10.648C29.9898 10.0347 31.1574 9.66089 32.3638 9.55348C33.5702 9.44607 34.7854 9.60775 35.9218 10.0269C37.0581 10.446 38.0873 11.1121 38.935 11.9771C39.7828 12.8422 40.428 13.8846 40.8241 15.0292C40.8928 15.2298 40.8909 15.4479 40.8186 15.6472C40.7462 15.8466 40.6079 16.0152 40.4264 16.125L24.8269 25.5722L30.341 42.4193C30.5247 42.9805 30.7315 43.5445 30.9504 44.1417C31.7671 46.37 32.6116 48.674 32.3551 51.1002C31.9908 54.5456 29.3552 57.6432 25.7969 58.808L25.7968 58.8079ZM21.0138 44.1946C17.0528 45.4911 14.7735 49.4276 15.9328 52.9696C17.0921 56.5115 21.2579 58.3386 25.2189 57.0421C28.0935 56.1012 30.2188 53.6348 30.5075 50.9048C30.7185 48.9081 29.9495 46.8102 29.2059 44.7811C28.9911 44.1952 28.7689 43.5893 28.5751 42.9973L22.8314 25.4488C22.7662 25.2494 22.7703 25.0337 22.8433 24.8369C22.9163 24.6402 23.0537 24.4739 23.2332 24.3652L38.7859 14.9465C38.0814 13.4795 36.8339 12.3441 35.3073 11.7806C34.4248 11.4512 33.4799 11.3226 32.5415 11.4043C31.6031 11.4859 30.6946 11.7756 29.8822 12.2524L18.0266 19.176C17.7857 19.3171 17.5999 19.5359 17.4999 19.7966C17.3998 20.0572 17.3915 20.3442 17.4763 20.6102L24.6613 42.562C24.7074 42.7029 24.7191 42.8528 24.6955 42.9992C24.6718 43.1456 24.6135 43.2841 24.5254 43.4034C24.4372 43.5226 24.3218 43.619 24.1888 43.6845C24.0558 43.75 23.909 43.7827 23.7607 43.7799C22.8283 43.7629 21.8997 43.9031 21.0138 44.1946Z" fill="#0B0B0C"/>
<path d="M45.8997 71.6309C40.9649 73.2461 35.7477 70.8863 34.2697 66.3706C32.7917 61.8549 35.6038 56.8671 40.5386 55.2519C41.2145 55.0303 41.9115 54.8797 42.6185 54.8025L35.1451 31.9692C34.93 31.2994 34.9495 30.5764 35.2001 29.9191C35.4508 29.2618 35.9177 28.7094 36.5241 28.3529L59.6153 14.8675C59.979 14.6542 60.3859 14.525 60.806 14.4893C61.2261 14.4536 61.6489 14.5124 62.0434 14.6613C62.4379 14.8102 62.7941 15.0455 63.0858 15.3499C63.3776 15.6543 63.5976 16.0201 63.7296 16.4205L71.023 38.7045C71.9956 41.6769 72.9685 44.6493 73.9419 47.6215C74.0554 47.9681 74.176 48.317 74.2929 48.6545C75.0301 50.7864 75.7925 52.9907 75.0802 55.5796C74.6473 57.1049 73.8476 58.5012 72.751 59.6464C71.6543 60.7917 70.2941 61.6512 68.7889 62.1499C63.8541 63.7651 58.637 61.4053 57.1589 56.8896C55.6809 52.3739 58.4932 47.386 63.428 45.7708C64.1038 45.5493 64.8008 45.3987 65.5077 45.3215L59.5432 27.0984L44.2613 36.3534L50.4438 55.2423C50.6275 55.8035 50.8342 56.3675 51.0532 56.9647C51.8699 59.193 52.7145 61.4971 52.4579 63.9233C52.0936 67.3688 49.4579 70.4663 45.8997 71.6309ZM41.1166 57.0177C37.1556 58.3141 34.8762 62.2507 36.0355 65.7926C37.1948 69.3346 41.3606 71.1616 45.3218 69.8651C48.1962 68.9243 50.3215 66.4578 50.6102 63.7277C50.8214 61.731 50.0524 59.6331 49.3087 57.604C49.0939 57.0181 48.8717 56.4122 48.678 55.8203L42.4215 36.7051C42.3109 36.3702 42.3175 36.0076 42.4404 35.677C42.5632 35.3464 42.7949 35.0674 43.0973 34.886L58.8985 25.3169C59.0994 25.1948 59.3253 25.1198 59.5593 25.0972C59.7933 25.0747 60.0294 25.1053 60.2499 25.1867C60.4704 25.2681 60.6697 25.3983 60.8329 25.5675C60.9961 25.7367 61.119 25.9406 61.1924 26.1639L67.4925 45.4122C67.5563 45.6042 67.5741 45.8085 67.5446 46.0086C67.5152 46.2087 67.4392 46.3992 67.3229 46.5646C67.206 46.7312 67.0522 46.8685 66.8735 46.9659C66.6949 47.0632 66.4961 47.118 66.2928 47.1259C65.5151 47.1556 64.7454 47.2938 64.0059 47.5366C60.0448 48.8331 57.7654 52.7697 58.9247 56.3116C60.0841 59.8537 64.2498 61.6806 68.2109 60.3841C70.6275 59.5931 72.6208 57.5138 73.2887 55.0867C73.8482 53.0534 73.2405 51.2964 72.5369 49.2618C72.4177 48.9173 72.2945 48.561 72.1762 48.2C71.2025 45.2276 70.2295 42.2551 69.2572 39.2823L61.9638 16.9985C61.9194 16.8625 61.845 16.7383 61.7461 16.635C61.6472 16.5316 61.5263 16.4519 61.3924 16.4015C61.2561 16.3495 61.1097 16.3289 60.9643 16.3411C60.8188 16.3532 60.678 16.398 60.5522 16.472L37.4611 29.9572C37.2202 30.0982 37.0344 30.317 36.9344 30.5777C36.8344 30.8383 36.8261 31.1252 36.9108 31.3911L44.6032 54.8933C44.6669 55.0853 44.6848 55.2895 44.6553 55.4896C44.6259 55.6897 44.5499 55.8802 44.4336 56.0456C44.3167 56.2122 44.1629 56.3495 43.9842 56.4469C43.8056 56.5442 43.6068 56.599 43.4035 56.607C42.6258 56.6367 41.856 56.7749 41.1166 57.0177Z" fill="#0B0B0C"/>
</g>
<defs>
<clipPath id="clip0_113_3296">
<rect width="63.4188" height="63.4188" fill="white" transform="translate(0.602539 19.7275) rotate(-18.1236)"/>
</clipPath>
</defs>
</svg>
