<svg width="25" height="25" viewBox="0 0 25 25" fill="none" xmlns="http://www.w3.org/2000/svg">
<path d="M22.6655 6.24064C21.9139 6.56673 21.119 6.7823 20.3055 6.88064C21.1637 6.36796 21.8068 5.56142 22.1155 4.61064C21.3091 5.0907 20.4263 5.42894 19.5055 5.61064C18.8901 4.94321 18.0705 4.49894 17.1753 4.34749C16.2802 4.19605 15.3601 4.346 14.5593 4.77383C13.7586 5.20166 13.1225 5.88317 12.7508 6.71148C12.3791 7.53978 12.2928 8.46803 12.5055 9.35064C10.875 9.26817 9.27997 8.84359 7.82418 8.1045C6.3684 7.36541 5.08437 6.32833 4.05553 5.06064C3.69466 5.69081 3.50505 6.40446 3.50553 7.13064C3.50425 7.80502 3.66974 8.46926 3.98728 9.0642C4.30482 9.65915 4.76455 10.1663 5.32553 10.5406C4.6735 10.5229 4.03541 10.3479 3.46553 10.0306V10.0806C3.47041 11.0255 3.80152 11.9397 4.40284 12.6686C5.00416 13.3975 5.83878 13.8963 6.76553 14.0806C6.40878 14.1892 6.0384 14.2464 5.66553 14.2506C5.40742 14.2476 5.14995 14.2242 4.89553 14.1806C5.15944 14.9935 5.67015 15.7038 6.3566 16.2128C7.04305 16.7218 7.8711 17.0042 8.72553 17.0206C7.28273 18.1559 5.50141 18.7755 3.66553 18.7806C3.33126 18.7817 2.99726 18.7617 2.66553 18.7206C4.53996 19.9309 6.72434 20.5734 8.95553 20.5706C10.4952 20.5866 12.0227 20.2957 13.4486 19.7147C14.8746 19.1338 16.1705 18.2745 17.2607 17.1871C18.3509 16.0997 19.2135 14.806 19.7981 13.3815C20.3827 11.9571 20.6776 10.4304 20.6655 8.89064C20.6655 8.72064 20.6655 8.54064 20.6655 8.36064C21.4502 7.77545 22.127 7.05806 22.6655 6.24064Z" fill="#FFFAEC"/>
</svg>
