<svg width="44" height="44" viewBox="0 0 44 44" fill="none" xmlns="http://www.w3.org/2000/svg">
<path d="M33.9205 2.2181L33.1649 1.56306C33.7984 0.832359 34.9613 0.92479 35.4699 1.74942L38.111 6.03179L42.315 8.60325C43.2283 9.16193 43.2283 10.4872 42.315 11.0459L39.3018 12.889L42.315 14.7321L41.7932 15.5851L42.315 14.7321C43.2283 15.2907 43.2284 16.616 42.315 17.1747L39.3018 19.0178L42.315 20.8609C43.2284 21.4196 43.2283 22.7448 42.315 23.3035L39.3018 25.1466L42.315 26.9897C43.2283 27.5484 43.2283 28.8737 42.315 29.4324L39.3018 31.2755L42.315 33.1186C43.2283 33.6772 43.2283 35.0025 42.3149 35.5612L38.111 38.1326L35.5292 42.3189C34.9691 43.227 33.6474 43.227 33.0873 42.3189L31.2312 39.3093L29.375 42.319C28.815 43.227 27.4933 43.227 26.9332 42.319L25.077 39.3093L23.2209 42.3189C22.6608 43.227 21.3391 43.227 20.779 42.3189L18.9229 39.3093L17.0668 42.3189C16.5067 43.227 15.185 43.227 14.6249 42.3189L12.7688 39.3093L10.9126 42.3189C10.3526 43.227 9.03086 43.227 8.47082 42.3189M33.9205 2.2181L8.47082 42.3189M33.9205 2.2181L33.1649 1.56307L31.2312 3.79367L29.2382 1.49471L28.4843 2.14826L29.2382 1.4947C28.6664 0.835107 27.6419 0.83509 27.0701 1.4947L25.077 3.79368L23.084 1.49471C22.5122 0.835099 21.4877 0.8351 20.9159 1.49471L18.9229 3.79367L16.9299 1.49472C16.3581 0.835101 15.3336 0.835102 14.7618 1.49472L12.7688 3.79367L10.835 1.56306C10.2016 0.832351 9.03864 0.924794 8.53008 1.7494L5.88899 6.03177L1.68504 8.60322C0.771666 9.16191 0.771658 10.4872 1.68503 11.0458M33.9205 2.2181L1.68503 11.0458M8.47082 42.3189L5.88897 38.1326L1.68503 35.5612C0.771665 35.0025 0.771658 33.6772 1.68504 33.1185L4.69823 31.2754L1.68503 29.4323C0.771659 28.8736 0.771661 27.5484 1.68503 26.9897L2.20485 27.8395L1.68503 26.9897L4.69823 25.1466L1.68502 23.3035C0.771654 22.7448 0.771661 21.4195 1.68503 20.8608L4.69822 19.0178L1.68503 17.1747L2.20078 16.3315L1.68503 17.1747C0.771657 16.616 0.771666 15.2907 1.68503 14.732L2.20684 15.5851L1.68504 14.732L4.69822 12.8889L1.68503 11.0458M8.47082 42.3189L1.68503 11.0458M5.81779 38.0172L5.81842 38.0182C5.81821 38.0179 5.818 38.0175 5.81779 38.0172L6.30029 37.7196L5.81779 38.0172ZM38.5091 13.3738L38.51 13.3733L38.5091 13.3738Z" fill="#06AC76" stroke="#0B0B0C" stroke-width="2" stroke-linecap="round" stroke-linejoin="round"/>
</svg>
