<svg width="44" height="44" viewBox="0 0 44 44" fill="none" xmlns="http://www.w3.org/2000/svg">
<path d="M43 22C43 21.3471 42.5322 20.9566 42.2779 20.7844C41.9801 20.5826 41.6043 20.4257 41.2136 20.2963C40.4186 20.0329 39.3129 19.8041 37.9909 19.6071C35.7973 19.2801 32.8922 19.0243 29.5592 18.8689C31.8061 16.4022 33.6794 14.167 34.9993 12.3848C35.7948 11.3107 36.4149 10.367 36.7908 9.61866C36.9755 9.25086 37.1303 8.87414 37.1982 8.52094C37.2562 8.21933 37.3109 7.6124 36.8492 7.15075C36.3876 6.6891 35.7807 6.74377 35.4791 6.80177C35.1259 6.8697 34.7491 7.02448 34.3813 7.20921C33.633 7.58509 32.6893 8.2052 31.6152 9.00065C29.833 10.3206 27.5978 12.1939 25.1311 14.4408C24.9757 11.1078 24.7199 8.20267 24.3929 6.00908C24.1959 4.68714 23.9671 3.58137 23.7037 2.78642C23.5743 2.39571 23.4174 2.01988 23.2156 1.7221C23.0434 1.46782 22.6529 1 22 1C21.3471 1 20.9566 1.46782 20.7844 1.72211C20.5826 2.01988 20.4257 2.39572 20.2963 2.78642C20.0329 3.58137 19.8041 4.68714 19.6071 6.00909C19.2801 8.20268 19.0243 11.1078 18.8689 14.4408C16.4022 12.1939 14.167 10.3206 12.3848 9.00066C11.3107 8.20521 10.367 7.5851 9.61866 7.20922C9.25086 7.02449 8.87413 6.86971 8.52094 6.80178C8.21933 6.74378 7.6124 6.68911 7.15075 7.15076C6.6891 7.61241 6.74377 8.21934 6.80177 8.52095C6.8697 8.87414 7.02448 9.25087 7.20921 9.61867C7.58509 10.367 8.2052 11.3107 9.00064 12.3848C10.3206 14.167 12.1939 16.4022 14.4407 18.8689C11.1078 19.0243 8.20267 19.2801 6.00908 19.6071C4.68714 19.8041 3.58137 20.0329 2.78642 20.2963C2.39571 20.4257 2.01988 20.5826 1.7221 20.7844C1.46782 20.9566 1 21.3471 1 22C1 22.6529 1.46782 23.0434 1.7221 23.2156C2.01988 23.4173 2.39571 23.5743 2.78642 23.7037C3.58137 23.9671 4.68714 24.1959 6.00908 24.3929C8.20267 24.7198 11.1078 24.9757 14.4408 25.1311C12.1939 27.5978 10.3206 29.833 9.00065 31.6152C8.2052 32.6893 7.5851 33.633 7.20922 34.3813C7.02448 34.7491 6.8697 35.1258 6.80178 35.479C6.74378 35.7807 6.6891 36.3876 7.15075 36.8492C7.61241 37.3109 8.21933 37.2562 8.52094 37.1982C8.87414 37.1303 9.25087 36.9755 9.61867 36.7908C10.367 36.4149 11.3107 35.7948 12.3848 34.9993C14.167 33.6794 16.4022 31.8061 18.8689 29.5592C19.0243 32.8922 19.2801 35.7973 19.6071 37.9909C19.8041 39.3129 20.0329 40.4186 20.2963 41.2136C20.4257 41.6043 20.5826 41.9801 20.7844 42.2779C20.9566 42.5322 21.3471 43 22 43C22.6529 43 23.0434 42.5322 23.2156 42.2779C23.4174 41.9801 23.5743 41.6043 23.7037 41.2136C23.9671 40.4186 24.1959 39.3129 24.3929 37.9909C24.7199 35.7973 24.9757 32.8922 25.1311 29.5592C27.5978 31.8061 29.833 33.6794 31.6152 34.9993C32.6893 35.7948 33.633 36.4149 34.3813 36.7908C34.7491 36.9755 35.1258 37.1303 35.479 37.1982C35.7807 37.2562 36.3876 37.3109 36.8492 36.8492C37.3109 36.3876 37.2562 35.7807 37.1982 35.4791C37.1303 35.1259 36.9755 34.7491 36.7908 34.3813C36.4149 33.633 35.7948 32.6893 34.9993 31.6152C33.6794 29.833 31.8061 27.5978 29.5592 25.1311C32.8922 24.9757 35.7973 24.7199 37.9909 24.3929C39.3129 24.1959 40.4186 23.9671 41.2136 23.7037C41.6043 23.5743 41.9801 23.4174 42.2779 23.2156C42.5322 23.0434 43 22.6529 43 22Z" fill="#F49AC1" stroke="#0B0B0C" stroke-width="2"/>
</svg>
