<svg width="44" height="44" viewBox="0 0 44 44" fill="none" xmlns="http://www.w3.org/2000/svg">
<path d="M2 21C1.44772 21 1 21.4477 1 22C1 22.5523 1.44772 23 2 23C12.4934 23 21 31.5066 21 42C21 42.5523 21.4477 43 22 43C22.5523 43 23 42.5523 23 42C23 31.5066 31.5066 23 42 23C42.5523 23 43 22.5523 43 22C43 21.4477 42.5523 21 42 21C31.5066 21 23 12.4934 23 2C23 1.44772 22.5523 1 22 1C21.4477 1 21 1.44772 21 2C21 12.4934 12.4934 21 2 21Z" fill="#F0664A" stroke="#0B0B0C" stroke-width="2" stroke-linecap="round" stroke-linejoin="round"/>
</svg>
