<svg width="44" height="44" viewBox="0 0 44 44" fill="none" xmlns="http://www.w3.org/2000/svg">
<path d="M5.68456 22C5.68456 12.9892 12.9892 5.68456 22 5.68456C31.0108 5.68456 38.3154 12.9892 38.3154 22C38.3154 31.0108 31.0108 38.3154 22 38.3154C12.9892 38.3154 5.68456 31.0108 5.68456 22ZM22 1C10.402 1 1 10.402 1 22C1 33.598 10.402 43 22 43C33.598 43 43 33.598 43 22C43 10.402 33.598 1 22 1Z" fill="#FFEE00" stroke="#0B0B0C" stroke-width="2"/>
<path d="M10.114 22.0002C10.114 15.4358 15.4355 10.1143 21.9999 10.1143C28.5643 10.1143 33.8858 15.4358 33.8858 22.0002C33.8858 28.5646 28.5643 33.8861 21.9999 33.8861C15.4355 33.8861 10.114 28.5646 10.114 22.0002ZM21.9999 5.42969C12.8483 5.42969 5.42944 12.8485 5.42944 22.0002C5.42944 31.1518 12.8483 38.5706 21.9999 38.5706C31.1515 38.5706 38.5704 31.1518 38.5704 22.0002C38.5704 12.8485 31.1515 5.42969 21.9999 5.42969Z" fill="#FFEE00" stroke="#0B0B0C" stroke-width="2"/>
<path d="M15.0806 22C15.0806 18.1785 18.1785 15.0806 22 15.0806C25.8215 15.0806 28.9195 18.1785 28.9195 22C28.9195 25.8215 25.8215 28.9195 22 28.9195C18.1785 28.9195 15.0806 25.8215 15.0806 22ZM22 10.396C15.5913 10.396 10.396 15.5913 10.396 22C10.396 28.4088 15.5913 33.6041 22 33.6041C28.4088 33.6041 33.6041 28.4088 33.6041 22C33.6041 15.5913 28.4088 10.396 22 10.396Z" fill="#FFEE00" stroke="#0B0B0C" stroke-width="2"/>
<path d="M20.0471 21.9999C20.0471 20.9213 20.9215 20.0469 22.0001 20.0469C23.0788 20.0469 23.9532 20.9213 23.9532 21.9999C23.9532 23.0785 23.0788 23.9529 22.0001 23.9529C20.9215 23.9529 20.0471 23.0785 20.0471 21.9999ZM22.0001 15.3623C18.3343 15.3623 15.3625 18.3341 15.3625 21.9999C15.3625 25.6657 18.3343 28.6375 22.0001 28.6375C25.666 28.6375 28.6377 25.6657 28.6377 21.9999C28.6377 18.3341 25.666 15.3623 22.0001 15.3623Z" fill="#FFEE00" stroke="#0B0B0C" stroke-width="2"/>
</svg>
