<svg width="44" height="44" viewBox="0 0 44 44" fill="none" xmlns="http://www.w3.org/2000/svg">
<path d="M18.9595 37.1108C19.7096 36.6993 20.391 36.2151 21 35.6713V42C21 42.5523 21.4477 43 22 43C28.6781 43 34.3047 38.1807 34.3047 31.9885C34.3047 31.194 34.2106 30.4194 34.0324 29.6733L39.9431 32.8682C40.4117 33.1215 40.9966 32.963 41.2732 32.5078C44.6568 26.9389 42.9248 19.917 37.3057 16.8797C36.599 16.4978 35.8656 16.1982 35.1171 15.9774L40.8615 12.826C41.1017 12.6942 41.2774 12.4695 41.3474 12.2046C41.4173 11.9396 41.3755 11.6576 41.2317 11.4243C37.8289 5.90629 30.6007 3.83882 25.0405 6.88916C24.2904 7.30067 23.609 7.78488 23 8.32866V2C23 1.44772 22.5523 1 22 1C15.3219 1 9.69528 5.81928 9.69528 12.0115C9.69528 12.806 9.78936 13.5806 9.96764 14.3267L4.05688 11.1318C3.58827 10.8785 3.00336 11.037 2.72676 11.4922C-0.656783 17.0611 1.07518 24.083 6.69432 27.1203C7.40099 27.5022 8.13439 27.8018 8.88291 28.0226L3.13851 31.174C2.89826 31.3058 2.72262 31.5305 2.65265 31.7954C2.58267 32.0604 2.62449 32.3424 2.76832 32.5757C6.17114 38.0937 13.3993 40.1612 18.9595 37.1108Z" fill="#C395F4" stroke="#0B0B0C" stroke-width="2" stroke-linecap="round" stroke-linejoin="round"/>
</svg>
